[Header]
FileType HTR
DataType HTRS
FileVersion 1
NumSegments 48
NumFrames 3
DataFrameRate 30
EulerRotationOrder ZYX
CalibrationUnits mm
RotationUnits Degrees
GlobalAxisofGravity Y
BoneLengthAxis Y
ScaleFactor 1.0
[SegmentNames&Hierarchy]
Wolf	GLOBAL
Becken	Wolf
Bauch	Becken
Bauch_001	Bauch
Brust	Bauch_001
Hals	Brust
Kopf_002	Hals
Kopf	Kopf_002
Unterkiefer	Kopf
Hals_fett	Unterkiefer
Maulunten	Unterkiefer
Mauloben	Kopf
MundW_L	Kopf
MundW_R	Kopf
Augen_con	Kopf
IK_Aug_R	Augen_con
IK_Aug_L	Augen_con
Aug_R	Kopf
aug_L	Kopf
Ohr_L	Kopf
Ohr_R	Kopf
Braun_O_L	Kopf
Braun_O_R	Kopf
aug_lied_O_L	Kopf
aug_lied_O_R	Kopf
aug_lied_U_L	Kopf
aug_lied_U_R	Kopf
Bauch_003	Brust
Schalterplatte_L	Bauch_003
Oberarm_L	Schalterplatte_L
Unterarm_L	Oberarm_L
Vorderpfote_L	Unterarm_L
Schalterplatte_R	Bauch_003
Oberarm_R	Schalterplatte_R
Unterarm_R	Oberarm_R
Vorderpfote_R	Unterarm_R
Schwanz	Becken
Schwanz_001	Schwanz
Schwanz_002	Schwanz_001
Schwanz_003	Schwanz_002
Oberschenkel_L	Becken
Unterschenkel_L	Oberschenkel_L
Pfote1_L	Unterschenkel_L
Pfote2_L	Pfote1_L
Oberschenkel_R	Becken
Unterschenkel_R	Oberschenkel_R
Pfote1_R	Unterschenkel_R
Pfote2_R	Pfote1_R
[BasePosition]
Wolf	0	0	0	0	0	0	1
Becken	0	0	0	0	0	0	1
Bauch	0	0	0	0	0	0	1
Bauch_001	0	0	0	0	0	0	1
Brust	0	0	0	0	0	0	1
Hals	0	0	0	0	0	0	1
Kopf_002	0	0	0	0	0	0	1
Kopf	0	0	0	0	0	0	1
Unterkiefer	0	0	0	0	0	0	1
Hals_fett	0	0	0	0	0	0	1
Maulunten	0	0	0	0	0	0	1
Mauloben	0	0	0	0	0	0	1
MundW_L	0	0	0	0	0	0	1
MundW_R	0	0	0	0	0	0	1
Augen_con	0	0	0	0	0	0	1
IK_Aug_R	0	0	0	0	0	0	1
IK_Aug_L	0	0	0	0	0	0	1
Aug_R	0	0	0	0	0	0	1
aug_L	0	0	0	0	0	0	1
Ohr_L	0	0	0	0	0	0	1
Ohr_R	0	0	0	0	0	0	1
Braun_O_L	0	0	0	0	0	0	1
Braun_O_R	0	0	0	0	0	0	1
aug_lied_O_L	0	0	0	0	0	0	1
aug_lied_O_R	0	0	0	0	0	0	1
aug_lied_U_L	0	0	0	0	0	0	1
aug_lied_U_R	0	0	0	0	0	0	1
Bauch_003	0	0	0	0	0	0	1
Schalterplatte_L	0	0	0	0	0	0	1
Oberarm_L	0	0	0	0	0	0	1
Unterarm_L	0	0	0	0	0	0	1
Vorderpfote_L	0	0	0	0	0	0	1
Schalterplatte_R	0	0	0	0	0	0	1
Oberarm_R	0	0	0	0	0	0	1
Unterarm_R	0	0	0	0	0	0	1
Vorderpfote_R	0	0	0	0	0	0	1
Schwanz	0	0	0	0	0	0	1
Schwanz_001	0	0	0	0	0	0	1
Schwanz_002	0	0	0	0	0	0	1
Schwanz_003	0	0	0	0	0	0	1
Oberschenkel_L	0	0	0	0	0	0	1
Unterschenkel_L	0	0	0	0	0	0	1
Pfote1_L	0	0	0	0	0	0	1
Pfote2_L	0	0	0	0	0	0	1
Oberschenkel_R	0	0	0	0	0	0	1
Unterschenkel_R	0	0	0	0	0	0	1
Pfote1_R	0	0	0	0	0	0	1
Pfote2_R	0	0	0	0	0	0	1
[Wolf]
19	0	0	0	-90	-0	0	1.0
20	0	0	0	-90	-0	0	1.0
21	0	0	0	-90	-0	0	1.0
[Becken]
19	0	0.3445554972	-0.2767899036	-2.067962885	164.4212189	89.26520538	1.0
20	0	0.3545415103	-0.2951298356	-2.067962885	164.4212189	89.26520538	1.0
21	0	0.3645275235	-0.3134697974	-2.067962885	164.4212189	89.26520538	1.0
[Bauch]
19	0.9984878302	-0.00741992658	-0.150611341	-6.458931239e-07	12.60522842	-8.201818247e-08	1.0
20	0.9984878302	-0.00741992658	-0.150611341	-6.458931239e-07	12.60522842	-8.201818247e-08	1.0
21	0.9984878302	-0.00741992658	-0.150611341	-6.458931239e-07	12.60522842	-8.201818247e-08	1.0
[Bauch_001]
19	1.071342349	0.006600080058	-0.1893585622	-1.568805601e-07	2.360082865	-2.503413654e-08	1.0
20	1.071342349	0.006600080058	-0.1893585622	-1.568805601e-07	2.360082865	-2.503413654e-08	1.0
21	1.071342349	0.006600080058	-0.1893585622	-1.568805601e-07	2.360082865	-2.503413654e-08	1.0
[Brust]
19	1.41907382	-0.01381989196	0.3623858392	3.618613846e-06	10.7627573	-4.096809789e-05	1.0
20	1.41907382	-0.01381989196	0.3623858392	3.618613846e-06	10.7627573	-4.096809789e-05	1.0
21	1.41907382	-0.01381989196	0.3623858392	3.618613846e-06	10.7627573	-4.096809789e-05	1.0
[Hals]
19	1.1844244	-0.01484991144	1.02827692	-4.51789947e-06	46.87745285	-2.16624926e-06	1.0
20	1.1844244	-0.01484991144	1.02827692	-4.51789947e-06	46.87745285	-2.16624926e-06	1.0
21	1.1844244	-0.01484991144	1.02827692	-4.51789947e-06	46.87745285	-2.16624926e-06	1.0
[Kopf_002]
19	1.75259161	3.012944944e-05	0.2651725411	0.006653842982	-165.1497192	0.002556535648	1.0
20	1.75259161	3.012944944e-05	0.2651725411	0.006653842982	-165.1497192	0.002556535648	1.0
21	1.75259161	3.012944944e-05	0.2651725411	0.006653842982	-165.1497192	0.002556535648	1.0
[Kopf]
19	1.015781879	8.032657206e-08	9.111317922e-08	0.06872025877	123.2280426	-0.02605217695	1.0
20	1.015781879	8.032657206e-08	9.111317922e-08	0.06872025877	123.2280426	-0.02605217695	1.0
21	1.015781879	8.032657206e-08	9.111317922e-08	0.06872025877	123.2280426	-0.02605217695	1.0
[Unterkiefer]
19	0.6370437145	0.004552738741	0.4060620368	5.412721157	-68.3888092	-3.09354353	1.0
20	0.6370437145	0.004552738741	0.4060620368	5.412721157	-68.3888092	-3.09354353	1.0
21	0.6370437145	0.004552738741	0.4060620368	5.412721157	-68.3888092	-3.09354353	1.0
[Hals_fett]
19	0.2998299599	0.007747137919	0.1206380203	-5.071650982	-59.35961533	5.585566998	1.0
20	0.2998299599	0.007747137919	0.1206380203	-5.071650982	-59.35961533	5.585566998	1.0
21	0.2998299599	0.007747137919	0.1206380203	-5.071650982	-59.35961533	5.585566998	1.0
[Maulunten]
19	0.08317943662	-0.007747350261	-0.1206459776	-3.32220912	38.97271347	-0.871876061	1.0
20	0.08317943662	-0.007747350261	-0.1206459776	-3.32220912	38.97271347	-0.871876061	1.0
21	0.08317943662	-0.007747350261	-0.1206459776	-3.32220912	38.97271347	-0.871876061	1.0
[Mauloben]
19	0.910148263	0.0004056794569	0.4003701806	-0.1032674983	-28.77768707	0.03543139994	1.0
20	0.910148263	0.0004056794569	0.4003701806	-0.1032674983	-28.77768707	0.03543139994	1.0
21	0.910148263	0.0004056794569	0.4003701806	-0.1032674983	-28.77768707	0.03543139994	1.0
[MundW_L]
19	0.673060894	-0.3618556261	0.3751286268	-179.8370972	-17.94884872	24.71397209	1.0
20	0.673060894	-0.3618556261	0.3751286268	-179.8370972	-17.94884872	24.71397209	1.0
21	0.673060894	-0.3618556261	0.3751286268	-179.8370972	-17.94884872	24.71397209	1.0
[MundW_R]
19	0.6732318401	0.3627035022	0.37398085	179.6653442	-18.02427101	-24.69083977	1.0
20	0.6732318401	0.3627035022	0.37398085	179.6653442	-18.02427101	-24.69083977	1.0
21	0.6732318401	0.3627035022	0.37398085	179.6653442	-18.02427101	-24.69083977	1.0
[Augen_con]
19	1.807372689	-0.0001604028512	0.1835819334	0.09822253883	157.1545258	0.02385936864	1.0
20	1.807372689	-0.0001604028512	0.1835819334	0.09822253883	157.1545258	0.02385936864	1.0
21	1.807372689	-0.0001604028512	0.1835819334	0.09822253883	157.1545258	0.02385936864	1.0
[IK_Aug_R]
19	0.3461304307	0.2943200469	-8.032657206e-08	-0.4194762409	-4.963055134	165.6946411	1.0
20	0.3461304307	0.2943200469	-8.032657206e-08	-0.4194762409	-4.963055134	165.6946411	1.0
21	0.3461304307	0.2943200469	-8.032657206e-08	-0.4194762409	-4.963055134	165.6946411	1.0
[IK_Aug_L]
19	0.3461307883	-0.2943199575	-1.629814861e-08	0.4194769561	-4.963055134	-165.6946411	1.0
20	0.3461307883	-0.2943199575	-1.629814861e-08	0.4194769561	-4.963055134	-165.6946411	1.0
21	0.3461307883	-0.2943199575	-1.629814861e-08	0.4194769561	-4.963055134	-165.6946411	1.0
[Aug_R]
19	1.0351547	0.2207805812	-0.09605748951	176.004776	-17.29163933	12.85548019	1.0
20	1.0351547	0.2207805812	-0.09605748951	176.004776	-17.29163933	12.85548019	1.0
21	1.0351547	0.2207805812	-0.09605748951	176.004776	-17.29163933	12.85548019	1.0
[aug_L]
19	1.035044074	-0.2215988934	-0.09535883367	-176.1891022	-17.33178139	-12.83103275	1.0
20	1.035044074	-0.2215988934	-0.09535883367	-176.1891022	-17.33178139	-12.83103275	1.0
21	1.035044074	-0.2215988934	-0.09535883367	-176.1891022	-17.33178139	-12.83103275	1.0
[Ohr_L]
19	0.6407760978	-0.3659991622	-0.6893320084	-24.34924507	53.07766342	-15.02013397	1.0
20	0.6407760978	-0.3659991622	-0.6893320084	-24.34924507	53.07766342	-15.02013397	1.0
21	0.6407760978	-0.3659991622	-0.6893320084	-24.34924507	53.07766342	-15.02013397	1.0
[Ohr_R]
19	0.6409583092	0.3634999394	-0.6904845238	24.05786133	53.12416077	14.75857162	1.0
20	0.6409583092	0.3634999394	-0.6904845238	24.05786133	53.12416077	14.75857162	1.0
21	0.6409583092	0.3634999394	-0.6904845238	24.05786133	53.12416077	14.75857162	1.0
[Braun_O_L]
19	0.9801794291	-0.3706048727	-0.3292538524	-143.3172302	-34.69635391	52.39493942	1.0
20	0.9801794291	-0.3706048727	-0.3292538524	-143.3172302	-34.69635391	52.39493942	1.0
21	0.9801794291	-0.3706048727	-0.3292538524	-143.3172302	-34.69635391	52.39493942	1.0
[Braun_O_R]
19	0.9803634882	0.3690741956	-0.3304223716	143.1826782	-34.83971786	-52.3467598	1.0
20	0.9803634882	0.3690741956	-0.3304223716	143.1826782	-34.83971786	-52.3467598	1.0
21	0.9803634882	0.3690741956	-0.3304223716	143.1826782	-34.83971786	-52.3467598	1.0
[aug_lied_O_L]
19	1.038881421	-0.3271433711	-0.1608108282	-175.8613434	-20.15596199	60.31666946	1.0
20	1.038881421	-0.3271433711	-0.1608108282	-175.8613434	-20.15596199	60.31666946	1.0
21	1.038881421	-0.3271433711	-0.1608108282	-175.8613434	-20.15596199	60.31666946	1.0
[aug_lied_O_R]
19	1.039044261	0.3261157274	-0.1618429124	175.7657928	-20.31323814	-60.31218338	1.0
20	1.039044261	0.3261157274	-0.1618429124	175.7657928	-20.31323814	-60.31218338	1.0
21	1.039044261	0.3261157274	-0.1618429124	175.7657928	-20.31323814	-60.31218338	1.0
[aug_lied_U_L]
19	1.021915555	-0.3312865496	-0.1338484734	-159.8099365	-28.7482872	60.17461395	1.0
20	1.021915555	-0.3312865496	-0.1338484734	-159.8099365	-28.7482872	60.17461395	1.0
21	1.021915555	-0.3312865496	-0.1338484734	-159.8099365	-28.7482872	60.17461395	1.0
[aug_lied_U_R]
19	1.02207756	0.3303526342	-0.1348843277	159.7071381	-28.90532684	-60.15359116	1.0
20	1.02207756	0.3303526342	-0.1348843277	159.7071381	-28.90532684	-60.15359116	1.0
21	1.02207756	0.3303526342	-0.1348843277	159.7071381	-28.90532684	-60.15359116	1.0
[Bauch_003]
19	1.444672227	0.03385011479	-1.56629622	-3.870021374e-06	-137.6799469	1.039222207e-05	1.0
20	1.444672227	0.03385011479	-1.56629622	-3.870021374e-06	-137.6799469	1.039222207e-05	1.0
21	1.444672227	0.03385011479	-1.56629622	-3.870021374e-06	-137.6799469	1.039222207e-05	1.0
[Schalterplatte_L]
19	0.9806314111	-0.3933479786	0.09236191213	-14.54602909	71.54013824	-43.78062057	1.0
20	1.011616707	-0.3960839212	0.1136507988	-14.10851192	71.35038757	-43.39361191	1.0
21	1.042602062	-0.3988199234	0.1349397004	-13.87086868	71.22476196	-43.20840836	1.0
[Oberarm_L]
19	1.418636918	9.313225746e-08	1.303851604e-07	-87.17367554	-65.68074799	103.3356323	1.0
20	1.418636918	9.313225746e-08	1.303851604e-07	-89.26390839	-65.67485046	105.7550659	1.0
21	1.418636918	9.313225746e-08	1.303851604e-07	-91.30756378	-65.6337204	108.131073	1.0
[Unterarm_L]
19	2.028227806	1.885928214e-07	1.862644972e-08	5.858605862	58.217453	6.176557064	1.0
20	2.028227806	1.885928214e-07	1.862644972e-08	6.151923656	58.50925827	6.494529724	1.0
21	2.028227806	1.885928214e-07	1.862644972e-08	6.480519772	58.88594437	6.848241329	1.0
[Vorderpfote_L]
19	1.705947399	2.607703209e-07	2.305023372e-07	-1.994301796	94.92930603	-1.070620894	1.0
20	1.705947399	2.607703209e-07	2.305023372e-07	-2.305242538	95.28225708	-1.382156014	1.0
21	1.705947399	2.607703209e-07	2.305023372e-07	-2.590749979	95.6654892	-1.668394804	1.0
[Schalterplatte_R]
19	0.9387714267	0.3823088109	-0.06640797108	125.8543243	70.0844574	160.5293274	1.0
20	0.9499099255	0.3823503852	-0.07949567586	125.7075958	70.29343414	160.1449127	1.0
21	0.9603718519	0.3823919892	-0.09258337319	123.678978	71.59473419	157.8538666	1.0
[Oberarm_R]
19	1.418636441	2.235174179e-07	1.490116119e-07	114.5105286	-54.2582283	-138.8609772	1.0
20	1.418636441	2.235174179e-07	1.490116119e-07	111.6669846	-55.6497612	-135.0033875	1.0
21	1.418636441	2.235174179e-07	1.490116119e-07	108.0695038	-57.30052567	-130.2398529	1.0
[Unterarm_R]
19	2.028232098	1.350417733e-07	-7.450580597e-08	-66.37776947	84.87450409	-67.14057922	1.0
20	2.028232098	1.350417733e-07	-7.450580597e-08	-66.61277771	85.23377228	-67.25405121	1.0
21	2.028232098	1.350417733e-07	-7.450580597e-08	-65.29174805	85.46513367	-65.91912842	1.0
[Vorderpfote_R]
19	1.705937624	9.313230187e-09	7.101335342e-08	-7.089223385	-12.76220608	8.964097023	1.0
20	1.705937624	9.313230187e-09	7.101335342e-08	-6.591635227	-11.14312267	8.522742271	1.0
21	1.705937624	9.313230187e-09	7.101335342e-08	-5.434995174	-5.175141335	7.157284737	1.0
[Schwanz]
19	-0.1224462837	-1.338776023e-08	0.07787306607	0.09657907486	-123.0753555	-0.2794050276	1.0
20	-0.1327172518	-1.338776023e-08	0.08362905681	0.1227796674	-123.7270813	-0.364251554	1.0
21	-0.1429882199	-1.338776023e-08	0.08938506246	0.1469448209	-124.3788071	-0.4472508729	1.0
[Schwanz_001]
19	0.9104326963	6.926712359e-08	1.564329999e-09	-0.6105297208	-9.672339439	0.5602295995	1.0
20	0.9104326963	6.926712359e-08	1.564329999e-09	-0.5921407938	-10.42530251	0.5380935669	1.0
21	0.9104326963	6.926712359e-08	1.564329999e-09	-0.5734319687	-11.17826653	0.5156773329	1.0
[Schwanz_002]
19	0.7855662704	6.053597446e-08	1.369335223e-07	-0.2385690063	-13.67332935	0.1833274215	1.0
20	0.7855662704	6.053597446e-08	1.369335223e-07	-0.1864151508	-13.24992561	0.1429555714	1.0
21	0.7855662704	6.053597446e-08	1.369335223e-07	-0.1346337646	-12.82652092	0.1030211374	1.0
[Schwanz_003]
19	0.8350353241	6.286426668e-08	8.163624443e-08	0.02385892347	-4.085896015	0.06904916465	1.0
20	0.8350353241	6.286426668e-08	8.163624443e-08	-0.1325356513	-9.249547958	0.2251465619	1.0
21	0.8350353241	6.286426668e-08	8.163624443e-08	-0.3046191931	-14.41277313	0.3969541788	1.0
[Oberschenkel_L]
19	0.6359385252	-0.5837000012	-0.02924954332	10.26699448	-26.842453	-2.969167471	1.0
20	0.6153256893	-0.5837000012	-0.0001918440685	10.18505192	-25.20082092	-2.7843256	1.0
21	0.5947129726	-0.5837000012	0.02886585519	10.13356686	-24.08144379	-2.661507845	1.0
[Unterschenkel_L]
19	1.686439037	1.213002889e-07	1.719363651e-09	-151.3194733	-59.0188446	161.8233795	1.0
20	1.686439037	1.208764218e-07	1.81488391e-09	-150.3115845	-60.73827362	160.1905212	1.0
21	1.686439037	1.204525404e-07	1.910404279e-09	-148.881134	-62.69651794	158.1274719	1.0
[Pfote1_L]
19	1.190900326	1.407013599e-07	-1.395192868e-07	0.3706812859	53.07594681	-8.655509949	1.0
20	1.190900326	1.412744695e-07	-1.380864774e-07	0.224745959	54.01239395	-8.83708477	1.0
21	1.190900326	1.418475932e-07	-1.366536821e-07	0.0763547346	54.91557312	-9.019684792	1.0
[Pfote2_L]
19	0.9876255989	1.404864349e-07	-8.252951034e-08	53.4313736	102.4410095	47.060112	1.0
20	0.9876255989	1.387193009e-07	-8.090566439e-08	60.1426506	100.9677505	54.24899673	1.0
21	0.9876255989	1.369521812e-07	-7.928181844e-08	68.11405945	99.67984772	62.67918396	1.0
[Oberschenkel_R]
19	0.4807456136	0.5837000608	0.1278999299	-17.21481133	-65.85894775	12.00494385	1.0
20	0.4718205333	0.5837000608	0.1302465349	-18.17139816	-67.62308502	13.04655361	1.0
21	0.462895453	0.5837000608	0.1325931251	-19.24079132	-69.32118988	14.19762516	1.0
[Unterschenkel_R]
19	1.686449051	1.11758709e-07	3.725289943e-08	-101.3512802	-104.7743149	87.66891479	1.0
20	1.686449051	1.11758709e-07	3.725289943e-08	-104.6025391	-105.0798492	91.13607788	1.0
21	1.686449051	1.11758709e-07	3.725289943e-08	-108.3765106	-105.445343	95.14704895	1.0
[Pfote1_R]
19	1.190900326	2.176966518e-07	1.11758709e-07	-3.349145889	49.66407776	4.313816071	1.0
20	1.190900326	2.176966518e-07	1.11758709e-07	-2.943132639	45.27406311	4.859778404	1.0
21	1.190900326	2.176966518e-07	1.11758709e-07	-2.637741804	41.12451935	5.301220894	1.0
[Pfote2_R]
19	0.9876256585	1.024454832e-07	-4.656610209e-09	-22.02761078	103.3880005	-11.35532379	1.0
20	0.9876256585	1.024454832e-07	-4.656610209e-09	-23.21199036	102.8711548	-12.96574974	1.0
21	0.9876256585	1.024454832e-07	-4.656610209e-09	-25.03266716	101.9004364	-15.21794128	1.0
[EndOfFile]
